<?xml version="1.0" standalone="no"?>
<!DOCTYPE svg PUBLIC "-//W3C//DTD SVG 20010904//EN"
 "http://www.w3.org/TR/2001/REC-SVG-20010904/DTD/svg10.dtd">
<svg version="1.0" xmlns="http://www.w3.org/2000/svg"
 width="179.000000pt" height="274.000000pt" viewBox="0 0 179.000000 274.000000"
 preserveAspectRatio="xMidYMid meet">

<g transform="translate(0.000000,274.000000) scale(0.100000,-0.100000)"
fill="#000000" stroke="none">
<path d="M1032 2014 c-33 -23 -26 -65 12 -79 24 -8 31 -6 47 14 24 29 24 36
-1 61 -24 24 -29 24 -58 4z"/>
<path d="M754 2010 c-42 -16 -37 -71 6 -85 27 -8 70 19 70 44 0 32 -41 54 -76
41z"/>
<path d="M1230 1520 c0 -22 16 -43 28 -39 7 3 3 14 -8 29 -13 17 -20 20 -20
10z"/>
<path d="M807 1374 c-4 -4 -7 -51 -7 -105 l0 -98 -27 -3 c-22 -2 -28 -8 -28
-28 0 -20 6 -26 26 -28 17 -2 29 -11 32 -23 3 -10 13 -19 22 -19 9 0 19 9 22
19 3 12 15 21 32 23 20 2 26 8 26 28 0 20 -6 26 -27 28 l-27 3 -3 102 c-2 82
-6 102 -18 105 -9 1 -19 0 -23 -4z"/>
<path d="M1031 484 c-11 -25 -8 -45 4 -32 7 7 17 58 12 58 -2 0 -9 -12 -16
-26z"/>
</g>
</svg>
