<?xml version="1.0" standalone="no"?>
<!DOCTYPE svg PUBLIC "-//W3C//DTD SVG 20010904//EN"
 "http://www.w3.org/TR/2001/REC-SVG-20010904/DTD/svg10.dtd">
<svg version="1.0" xmlns="http://www.w3.org/2000/svg"
 width="705.000000pt" height="1080.000000pt" viewBox="0 0 705.000000 1080.000000"
 preserveAspectRatio="xMidYMid meet">

<g transform="translate(0.000000,1080.000000) scale(0.100000,-0.100000)"
fill="#000000" stroke="none">
<path d="M4110 7975 c-47 -15 -81 -42 -124 -98 -24 -31 -25 -36 -15 -102 11
-81 20 -92 107 -128 75 -32 119 -34 171 -7 103 52 130 175 60 277 -48 70 -106
87 -199 58z"/>
<path d="M2975 7933 c-29 -7 -95 -73 -111 -110 -39 -91 7 -184 113 -228 71
-30 190 -9 235 42 22 24 48 97 48 132 -1 46 -35 105 -80 136 -37 25 -53 30
-114 32 -39 1 -80 -1 -91 -4z"/>
<path d="M4852 5987 c-1 -27 4 -47 17 -61 10 -12 21 -34 25 -49 6 -25 32 -44
73 -53 14 -3 27 48 19 74 -4 10 -17 25 -31 32 -14 7 -27 21 -30 31 -3 9 -21
29 -39 42 l-33 26 -1 -42z"/>
<path d="M3188 5406 c-13 -12 -16 -78 -20 -395 -4 -272 -8 -385 -17 -395 -8
-10 -39 -15 -101 -18 -54 -2 -94 -8 -102 -16 -6 -6 -14 -40 -16 -75 -6 -92 8
-105 123 -113 103 -7 115 -16 115 -80 0 -61 20 -78 83 -71 64 8 77 20 77 71 0
65 12 73 113 79 48 3 94 10 102 17 16 14 21 144 7 168 -5 8 -44 15 -102 20
-87 6 -95 9 -107 32 -9 19 -13 115 -14 375 -1 193 -4 364 -8 380 -6 29 -9 30
-62 33 -40 2 -61 -1 -71 -12z"/>
<path d="M4067 1854 c-10 -10 -9 -52 2 -59 5 -3 12 -1 15 3 7 12 -8 65 -17 56z"/>
</g>
</svg>
